<?xml version="1.0" encoding="UTF-8" standalone="no"?>
<!-- Created with Inkscape (http://www.inkscape.org/) -->

<svg
   xmlns:dc="http://purl.org/dc/elements/1.1/"
   xmlns:cc="http://creativecommons.org/ns#"
   xmlns:rdf="http://www.w3.org/1999/02/22-rdf-syntax-ns#"
   xmlns:svg="http://www.w3.org/2000/svg"
   xmlns="http://www.w3.org/2000/svg"
   xmlns:sodipodi="http://sodipodi.sourceforge.net/DTD/sodipodi-0.dtd"
   xmlns:inkscape="http://www.inkscape.org/namespaces/inkscape"
   width="640"
   height="64"
   viewBox="0 0 169.33333 16.933334"
   version="1.1"
   id="svg825"
   inkscape:version="0.92.3 (2405546, 2018-03-11)"
   sodipodi:docname="header.svg">
  <defs
     id="defs819">
    <clipPath
       clipPathUnits="userSpaceOnUse"
       id="clipPath1476">
      <rect
         y="259.0629"
         x="95.493385"
         height="16.933332"
         width="31.75"
         id="rect1478"
         style="opacity:1;fill:#ffffff;fill-opacity:1;stroke:none;stroke-width:0.58955681;stroke-miterlimit:4;stroke-dasharray:4.71645442, 4.71645442;stroke-dashoffset:0;stroke-opacity:1"
         transform="rotate(16.830915)" />
    </clipPath>
    <clipPath
       clipPathUnits="userSpaceOnUse"
       id="clipPath1495">
      <rect
         style="opacity:1;fill:#ffffff;fill-opacity:1;stroke:none;stroke-width:0.58955681;stroke-miterlimit:4;stroke-dasharray:4.71645447, 4.71645447;stroke-dashoffset:0;stroke-opacity:1"
         id="rect1497"
         width="31.75"
         height="16.933332"
         x="91.045158"
         y="280.96286"
         transform="rotate(16.830915)" />
    </clipPath>
  </defs>
  <sodipodi:namedview
     id="base"
     pagecolor="#ffffff"
     bordercolor="#666666"
     borderopacity="1.0"
     inkscape:pageopacity="0.0"
     inkscape:pageshadow="2"
     inkscape:zoom="0.7"
     inkscape:cx="302.84351"
     inkscape:cy="31.771944"
     inkscape:document-units="mm"
     inkscape:current-layer="layer1"
     showgrid="false"
     units="px"
     inkscape:window-width="1280"
     inkscape:window-height="671"
     inkscape:window-x="0"
     inkscape:window-y="25"
     inkscape:window-maximized="1" />
  <metadata
     id="metadata822">
    <rdf:RDF>
      <cc:Work
         rdf:about="">
        <dc:format>image/svg+xml</dc:format>
        <dc:type
           rdf:resource="http://purl.org/dc/dcmitype/StillImage" />
        <dc:title></dc:title>
      </cc:Work>
    </rdf:RDF>
  </metadata>
  <g
     inkscape:label="Layer 1"
     inkscape:groupmode="layer"
     id="layer1"
     transform="translate(0,-280.06665)">
    <g
       id="g1441"
       clip-path="url(#clipPath1476)"
       transform="rotate(-16.830915,48.534348,162.2613)"
       style="opacity:0.175">
      <path
         inkscape:connector-curvature="0"
         d="m 29.020556,299.67189 c 0.694678,0 1.261225,0.56654 1.261225,1.26122 0,0.59952 -0.422157,1.10343 -0.984334,1.23026 -1.473753,3.91948 -5.263516,6.7212 -9.687319,6.7212 -4.418779,0 -8.205052,-2.79533 -9.6823516,-6.70779 -0.5958002,-0.10006 -1.0524173,-0.62015 -1.0524173,-1.24367 0,-0.69468 0.5665462,-1.26122 1.2612249,-1.26122 0.694679,0 1.261225,0.56654 1.261225,1.26122 0,0.41318 -0.200295,0.78085 -0.508925,1.01111 1.366897,3.48273 4.763639,5.96003 8.721244,5.96003 3.944198,0 7.331951,-2.46052 8.70783,-5.9248 -0.336522,-0.2269 -0.558624,-0.61148 -0.558624,-1.04634 0,-0.69468 0.566543,-1.26122 1.261222,-1.26122 z"
         style="fill:#30b492;fill-opacity:1;fill-rule:evenodd;stroke-width:0.06310442"
         id="path6" />
      <path
         inkscape:connector-curvature="0"
         d="m 21.087902,285.77306 c 0,-0.69468 -0.566546,-1.26123 -1.261225,-1.26123 -0.599522,0 -1.103424,0.42216 -1.230257,0.98433 -3.919485,1.47376 -6.72119,5.26352 -6.72119,9.68732 0,4.41878 2.795319,8.20506 6.707772,9.68236 0.100066,0.5958 0.620154,1.05242 1.243675,1.05242 0.694679,0 1.261225,-0.56655 1.261225,-1.26123 0,-0.69467 -0.566546,-1.26122 -1.261225,-1.26122 -0.413175,0 -0.780847,0.20029 -1.01111,0.50892 -3.482725,-1.3669 -5.960022,-4.76363 -5.960022,-8.72125 0,-3.94419 2.460512,-7.33194 5.924798,-8.70783 0.226893,0.33653 0.611463,0.55864 1.046334,0.55864 0.694679,0 1.261225,-0.56656 1.261225,-1.26123 z"
         style="fill:#00584b;fill-opacity:1;fill-rule:evenodd;stroke-width:0.06310442"
         id="path8" />
      <path
         inkscape:connector-curvature="0"
         d="m 16.949799,296.12461 c -0.694679,0 -1.261225,-0.56654 -1.261225,-1.26122 0,-0.59952 0.422162,-1.10342 0.984334,-1.23026 1.473752,-3.91948 5.263514,-6.72119 9.687318,-6.72119 4.41878,0 8.205052,2.79532 9.682352,6.70778 0.5958,0.10006 1.052422,0.62015 1.052422,1.24367 0,0.69468 -0.566551,1.26122 -1.26123,1.26122 -0.694678,0 -1.261225,-0.56654 -1.261225,-1.26122 0,-0.41317 0.200295,-0.78084 0.508925,-1.01111 -1.366897,-3.48272 -4.763639,-5.96002 -8.721244,-5.96002 -3.944198,0 -7.33195,2.46051 -8.707829,5.9248 0.336521,0.22689 0.558624,0.61146 0.558624,1.04633 0,0.69468 -0.566544,1.26122 -1.261222,1.26122 z"
         style="fill:#00584b;fill-opacity:1;fill-rule:evenodd;stroke-width:0.06310442"
         id="path10" />
      <path
         inkscape:connector-curvature="0"
         d="m 24.882452,310.02345 c 0,0.69468 0.566546,1.26123 1.261225,1.26123 0.599523,0 1.103425,-0.42216 1.230257,-0.98434 3.919485,-1.47375 6.721191,-5.26352 6.721191,-9.68733 0,-4.41877 -2.79532,-8.20505 -6.707773,-9.68235 -0.100058,-0.5958 -0.620153,-1.05242 -1.243675,-1.05242 -0.694679,0 -1.261225,0.56655 -1.261225,1.26123 0,0.69468 0.566546,1.26122 1.261225,1.26122 0.413175,0 0.780847,-0.20029 1.01111,-0.50892 3.482726,1.3669 5.960022,4.76364 5.960022,8.72124 0,3.9442 -2.460511,7.33196 -5.924797,8.70785 -0.226893,-0.33653 -0.611463,-0.55863 -1.046335,-0.55863 -0.694679,0 -1.261225,0.56655 -1.261225,1.26122 z"
         style="fill:#00584b;fill-opacity:1;fill-rule:evenodd;stroke-width:0.06310442"
         id="path12" />
    </g>
    <g
       transform="rotate(-16.830915,11.118656,-96.076867)"
       clip-path="url(#clipPath1495)"
       id="g1474"
       style="opacity:0.175">
      <path
         id="path1466"
         style="fill:#30b492;fill-opacity:1;fill-rule:evenodd;stroke-width:0.06310442"
         d="m 29.020556,299.67189 c 0.694678,0 1.261225,0.56654 1.261225,1.26122 0,0.59952 -0.422157,1.10343 -0.984334,1.23026 -1.473753,3.91948 -5.263516,6.7212 -9.687319,6.7212 -4.418779,0 -8.205052,-2.79533 -9.6823516,-6.70779 -0.5958002,-0.10006 -1.0524173,-0.62015 -1.0524173,-1.24367 0,-0.69468 0.5665462,-1.26122 1.2612249,-1.26122 0.694679,0 1.261225,0.56654 1.261225,1.26122 0,0.41318 -0.200295,0.78085 -0.508925,1.01111 1.366897,3.48273 4.763639,5.96003 8.721244,5.96003 3.944198,0 7.331951,-2.46052 8.70783,-5.9248 -0.336522,-0.2269 -0.558624,-0.61148 -0.558624,-1.04634 0,-0.69468 0.566543,-1.26122 1.261222,-1.26122 z"
         inkscape:connector-curvature="0" />
      <path
         id="path1468"
         style="fill:#00584b;fill-opacity:1;fill-rule:evenodd;stroke-width:0.06310442"
         d="m 21.087902,285.77306 c 0,-0.69468 -0.566546,-1.26123 -1.261225,-1.26123 -0.599522,0 -1.103424,0.42216 -1.230257,0.98433 -3.919485,1.47376 -6.72119,5.26352 -6.72119,9.68732 0,4.41878 2.795319,8.20506 6.707772,9.68236 0.100066,0.5958 0.620154,1.05242 1.243675,1.05242 0.694679,0 1.261225,-0.56655 1.261225,-1.26123 0,-0.69467 -0.566546,-1.26122 -1.261225,-1.26122 -0.413175,0 -0.780847,0.20029 -1.01111,0.50892 -3.482725,-1.3669 -5.960022,-4.76363 -5.960022,-8.72125 0,-3.94419 2.460512,-7.33194 5.924798,-8.70783 0.226893,0.33653 0.611463,0.55864 1.046334,0.55864 0.694679,0 1.261225,-0.56656 1.261225,-1.26123 z"
         inkscape:connector-curvature="0" />
      <path
         id="path1470"
         style="fill:#00584b;fill-opacity:1;fill-rule:evenodd;stroke-width:0.06310442"
         d="m 16.949799,296.12461 c -0.694679,0 -1.261225,-0.56654 -1.261225,-1.26122 0,-0.59952 0.422162,-1.10342 0.984334,-1.23026 1.473752,-3.91948 5.263514,-6.72119 9.687318,-6.72119 4.41878,0 8.205052,2.79532 9.682352,6.70778 0.5958,0.10006 1.052422,0.62015 1.052422,1.24367 0,0.69468 -0.566551,1.26122 -1.26123,1.26122 -0.694678,0 -1.261225,-0.56654 -1.261225,-1.26122 0,-0.41317 0.200295,-0.78084 0.508925,-1.01111 -1.366897,-3.48272 -4.763639,-5.96002 -8.721244,-5.96002 -3.944198,0 -7.33195,2.46051 -8.707829,5.9248 0.336521,0.22689 0.558624,0.61146 0.558624,1.04633 0,0.69468 -0.566544,1.26122 -1.261222,1.26122 z"
         inkscape:connector-curvature="0" />
      <path
         id="path1472"
         style="fill:#00584b;fill-opacity:1;fill-rule:evenodd;stroke-width:0.06310442"
         d="m 24.882452,310.02345 c 0,0.69468 0.566546,1.26123 1.261225,1.26123 0.599523,0 1.103425,-0.42216 1.230257,-0.98434 3.919485,-1.47375 6.721191,-5.26352 6.721191,-9.68733 0,-4.41877 -2.79532,-8.20505 -6.707773,-9.68235 -0.100058,-0.5958 -0.620153,-1.05242 -1.243675,-1.05242 -0.694679,0 -1.261225,0.56655 -1.261225,1.26123 0,0.69468 0.566546,1.26122 1.261225,1.26122 0.413175,0 0.780847,-0.20029 1.01111,-0.50892 3.482726,1.3669 5.960022,4.76364 5.960022,8.72124 0,3.9442 -2.460511,7.33196 -5.924797,8.70785 -0.226893,-0.33653 -0.611463,-0.55863 -1.046335,-0.55863 -0.694679,0 -1.261225,0.56655 -1.261225,1.26122 z"
         inkscape:connector-curvature="0" />
    </g>
  </g>
</svg>
