<?xml version="1.0" encoding="UTF-8" standalone="no"?>
<svg
   xmlns:dc="http://purl.org/dc/elements/1.1/"
   xmlns:cc="http://creativecommons.org/ns#"
   xmlns:rdf="http://www.w3.org/1999/02/22-rdf-syntax-ns#"
   xmlns:svg="http://www.w3.org/2000/svg"
   xmlns="http://www.w3.org/2000/svg"
   xmlns:sodipodi="http://sodipodi.sourceforge.net/DTD/sodipodi-0.dtd"
   xmlns:inkscape="http://www.inkscape.org/namespaces/inkscape"
   id="svg836"
   version="1.1"
   viewBox="0 0 380.20623 135.46667"
   height="512"
   width="1437"
   sodipodi:docname="logo.svg"
   inkscape:version="0.92.3 (2405546, 2018-03-11)">
  <sodipodi:namedview
     pagecolor="#ffffff"
     bordercolor="#666666"
     borderopacity="1"
     objecttolerance="10"
     gridtolerance="10"
     guidetolerance="10"
     inkscape:pageopacity="0"
     inkscape:pageshadow="2"
     inkscape:window-width="1280"
     inkscape:window-height="671"
     id="namedview13"
     showgrid="false"
     inkscape:zoom="0.30213192"
     inkscape:cx="1140.3143"
     inkscape:cy="262.49225"
     inkscape:window-x="0"
     inkscape:window-y="25"
     inkscape:window-maximized="1"
     inkscape:current-layer="svg836" />
  <defs
     id="defs830" />
  <metadata
     id="metadata833">
    <rdf:RDF>
      <cc:Work
         rdf:about="">
        <dc:format>image/svg+xml</dc:format>
        <dc:type
           rdf:resource="http://purl.org/dc/dcmitype/StillImage" />
        <dc:title />
      </cc:Work>
    </rdf:RDF>
  </metadata>
  <path
     id="path4"
     style="fill:#30b492;fill-opacity:1;fill-rule:evenodd;stroke-width:0.24120855"
     d="m 17.578954,106.93131 1.361574,-3.20672 2.557655,-5.789748 2.035993,-4.975362 2.354075,-6.337032 2.035969,-5.560653 1.768662,-5.293563 1.628785,-4.873595 1.527043,-5.038991 1.526922,-5.268044 1.450677,-6.031588 h 11.605002 l 0.687034,2.824986 2.53228,8.46191 0.534446,2.328676 1.056108,2.723051 3.919253,11.134163 2.366811,6.031589 2.125071,5.191677 2.443177,5.280823 2.519448,5.268071 2.964863,5.80252 H 58.043668 L 52.241179,92.577671 H 30.02382 L 23.839522,109.60348 H 16.43372 Z M 31.703476,87.233237 H 50.332544 L 41.01801,61.809179 Z m 49.407063,-19.16349 5.331674,-0.381712 c 3.690153,0 7.024089,0.470815 9.988953,1.412445 2.964863,0.94163 5.866094,2.723148 8.703714,5.344434 2.83765,2.621261 4.26283,7.189438 4.26283,13.704578 0,6.56601 -1.61604,11.783081 -4.84812,15.651468 -3.23207,3.8684 -7.647609,5.80252 -13.246518,5.80252 l -3.435679,-0.22908 c -0.916134,0 -1.883259,-0.13997 -2.901232,-0.41983 -1.017997,-0.27997 -2.31594,-0.72541 -3.893757,-1.3362 v 14.58261 h -8.016687 c 0,-1.7814 0.0891,-3.2066 0.26721,-4.27547 l 0.369074,-5.42078 0.356313,-3.05396 v -4.50457 l 0.305346,-4.65731 v -4.657254 l -0.305346,-6.794989 -0.41992,-7.558512 -0.356338,-7.100456 -0.216339,-2.290444 v -1.679656 c 3.143092,-1.017997 5.827984,-1.730648 8.054822,-2.137832 z m -0.343578,34.967683 3.130333,0.68716 2.214077,0.15273 2.137735,0.30535 2.290444,0.0764 c 7.838482,0 11.75771,-5.420821 11.75771,-16.262275 0,-5.598885 -1.05611,-9.683486 -3.168442,-12.253901 -2.11236,-2.570415 -5.535278,-3.855622 -10.268924,-3.855622 -0.814392,0 -1.692391,0.02537 -2.634021,0.07637 -0.94163,0.05087 -1.946867,0.152613 -3.015734,0.305346 l -2.443178,0.458055 z M 147.77245,73.414157 c -0.96712,-0.305346 -1.79415,-0.534422 -2.48131,-0.687155 -0.68715,-0.152612 -1.66692,-0.343577 -2.93949,-0.572557 -1.27245,-0.229075 -2.17584,-0.356313 -2.71027,-0.381809 -0.53444,-0.02538 -0.95439,-0.03814 -1.25983,-0.03814 -2.08686,0 -4.13547,0.394449 -6.14606,1.18337 -2.0105,0.788993 -3.49931,1.756022 -4.46641,2.901232 -0.96703,1.145234 -1.67966,2.443177 -2.13774,3.893854 -0.45808,1.45058 -0.68715,3.193842 -0.68715,5.229836 h 21.83576 v 4.199199 h -22.14111 v 1.14521 c 0,4.224696 0.83977,7.367668 2.51954,9.429036 1.67966,2.061477 3.75376,3.639397 6.22232,4.733647 2.46867,1.09437 4.89911,1.64155 7.2913,1.64155 2.79951,0 5.72624,-0.8144 8.78011,-2.44319 l 0.76352,3.89388 c -0.50895,0.25445 -1.39971,0.63616 -2.67216,1.14521 -1.27256,0.50896 -2.21419,0.85254 -2.82501,1.03065 -0.61079,0.1782 -1.27244,0.3182 -1.98497,0.41994 -0.71266,0.10184 -1.55245,0.15273 -2.51955,0.15273 -6.46417,0 -11.88495,-2.11237 -16.26226,-6.33697 -4.3773,-4.224707 -6.56601,-9.441787 -6.56601,-15.651484 0,-6.311536 1.88326,-11.312368 5.64988,-15.002521 3.7665,-3.69025 8.90733,-5.535279 15.42237,-5.535279 1.88326,0 3.42292,0.07637 4.61914,0.22898 1.19608,0.152733 2.99024,0.559917 5.38255,1.221576 z m 20.58556,14.658968 -11.6051,-19.774302 h 7.86396 l 8.2838,14.429868 8.66561,-14.429868 h 7.02409 l -11.605,19.545202 14.12454,21.759455 -8.7165,0.0128 -10.67609,-16.58051 -10.03982,16.54228 -6.98596,0.0255 z m 29.16204,16.796705 0.20361,-4.12286 v -3.9701 l 0.22898,-4.199199 v -4.657279 -4.1992 l -0.22898,-3.817367 v -3.588411 l -0.2291,-3.741024 -0.22908,-4.275567 h 8.09306 l -0.0764,2.595814 -0.13997,1.679753 -0.54719,2.748523 v 0.992501 3.588411 l -0.0764,3.435678 v 0.381689 4.1992 4.657279 l 0.0764,4.199199 v 3.9701 l 0.34358,4.12286 0.34358,4.73365 h -8.1693 z m -0.55991,-44.129518 c 0,-1.170706 0.41994,-2.188703 1.25971,-3.053966 0.85262,-0.865263 1.85788,-1.297943 3.05396,-1.297943 1.18347,0 2.17597,0.43268 2.97763,1.297943 0.83989,0.763522 1.25971,1.756022 1.25971,2.977599 0,1.17073 -0.41982,2.188726 -1.25971,3.05399 -0.85253,0.865263 -1.85789,1.297847 -3.05397,1.297847 h -0.59805 c -0.9925,-0.152637 -1.84513,-0.636188 -2.55768,-1.45058 -0.72529,-0.814393 -1.0816,-1.756023 -1.0816,-2.82489 z m 129.56045,44.053148 0.12723,-4.27547 v -4.046465 -2.901257 -1.37431 -4.733621 -3.893758 -3.410303 -2.544919 -0.699891 l -0.12723,-3.33384 -0.12724,-1.387046 -0.12724,-2.36681 c 4.58091,-0.865264 8.3984,-1.476076 11.45227,-1.832389 1.52704,-0.152613 2.95222,-0.279851 4.27557,-0.381713 1.32332,-0.101742 2.54492,-0.152709 3.66475,-0.152709 0.91614,0 1.76866,0 2.55768,0 0.7889,0 1.50155,0.05097 2.13771,0.152709 0.63629,0.101862 1.84513,0.43268 3.62655,0.992501 1.93423,0.458176 3.46115,1.297967 4.58101,2.519544 1.11974,1.068867 2.06137,2.774019 2.82486,5.115334 l 0.83979,3.9701 c 0.30545,1.374334 0.45806,2.723148 0.45806,4.046491 0.30547,2.901353 0.45817,6.591506 0.45817,11.070556 v 7.329546 6.94774 h -8.32203 v -16.338654 -3.130333 -4.27547 c 0,-2.341411 -0.27994,-4.504642 -0.83986,-6.489644 -0.47082,-2.13771 -1.65419,-3.868358 -3.58832,-5.1917 -1.92149,-1.323439 -4.23743,-1.985099 -6.96046,-1.985099 -2.15047,0 -5.15356,0.598053 -8.99642,1.806894 v 3.02859 2.710292 l -0.30547,2.570391 v 3.550276 2.443178 4.657279 2.748523 l 0.30547,11.757757 v 2.13772 h -8.16933 z"
     inkscape:connector-curvature="0" />
  <path
     id="path6"
     style="fill:#30b492;fill-opacity:1;fill-rule:evenodd;stroke-width:0.24120855"
     d="m 295.52989,72.867168 c 2.65532,0 4.82087,2.165547 4.82087,4.820867 0,2.291602 -1.61364,4.217701 -3.76249,4.702506 -5.63323,14.981724 -20.11911,25.690929 -37.02853,25.690929 -16.89022,0 -31.36276,-10.684795 -37.00955,-25.639648 -2.27737,-0.382485 -4.02273,-2.370453 -4.02273,-4.753787 0,-2.65532 2.16555,-4.820867 4.82087,-4.820867 2.65532,0 4.82087,2.165547 4.82087,4.820867 0,1.579313 -0.7656,2.984691 -1.9453,3.864837 5.22479,13.312276 18.2084,22.781448 33.33584,22.781448 15.07619,0 28.02544,-9.405011 33.28456,-22.646806 -1.28631,-0.867265 -2.13527,-2.337262 -2.13527,-3.999479 0,-2.65532 2.16554,-4.820867 4.82086,-4.820867 z"
     inkscape:connector-curvature="0" />
  <path
     id="path8"
     style="fill:#00584b;fill-opacity:1;fill-rule:evenodd;stroke-width:0.24120855"
     d="m 265.20834,19.74067 c 0,-2.655298 -2.16555,-4.82087 -4.82087,-4.82087 -2.2916,0 -4.2177,1.613663 -4.7025,3.762494 -14.98173,5.633234 -25.69089,20.11911 -25.69089,37.02853 0,16.890219 10.68475,31.362781 25.6396,37.00957 0.38249,2.27737 2.37046,4.022731 4.75379,4.022731 2.65532,0 4.82087,-2.165546 4.82087,-4.820866 0,-2.655321 -2.16555,-4.820867 -4.82087,-4.820867 -1.57931,0 -2.98469,0.765596 -3.86484,1.945275 -13.31227,-5.224795 -22.78142,-18.208376 -22.78142,-33.335843 0,-15.076162 9.40499,-28.02542 22.64678,-33.284562 0.86727,1.286317 2.33724,2.135298 3.99948,2.135298 2.65532,0 4.82087,-2.16557 4.82087,-4.82089 z"
     inkscape:connector-curvature="0" />
  <path
     id="path10"
     style="fill:#00584b;fill-opacity:1;fill-rule:evenodd;stroke-width:0.24120855"
     d="m 249.39097,59.308184 c -2.65532,0 -4.82087,-2.165546 -4.82087,-4.820867 0,-2.291602 1.61366,-4.2177 3.76249,-4.702505 5.63323,-14.981729 20.11911,-25.690883 37.02853,-25.690883 16.89022,0 31.36276,10.684744 37.00955,25.639602 2.27737,0.38246 4.02275,2.370453 4.02275,4.753786 0,2.655321 -2.16557,4.820867 -4.82089,4.820867 -2.65532,0 -4.82087,-2.165546 -4.82087,-4.820867 0,-1.579313 0.7656,-2.98469 1.9453,-3.864836 -5.22479,-13.312276 -18.2084,-22.781425 -33.33584,-22.781425 -15.07619,0 -28.02544,9.404987 -33.28456,22.646782 1.28631,0.867266 2.13527,2.337239 2.13527,3.999479 0,2.655321 -2.16554,4.820867 -4.82086,4.820867 z"
     inkscape:connector-curvature="0" />
  <path
     id="path12"
     style="fill:#00584b;fill-opacity:1;fill-rule:evenodd;stroke-width:0.24120855"
     d="m 279.71252,112.43471 c 0,2.65532 2.16555,4.82087 4.82087,4.82087 2.2916,0 4.2177,-1.61364 4.7025,-3.7625 14.98173,-5.63324 25.69089,-20.119156 25.69089,-37.028575 0,-16.890196 -10.68475,-31.362757 -25.6396,-37.009546 -0.38246,-2.277371 -2.37046,-4.022732 -4.75379,-4.022732 -2.65532,0 -4.82087,2.165546 -4.82087,4.820867 0,2.65532 2.16555,4.820866 4.82087,4.820866 1.57931,0 2.98469,-0.765596 3.86484,-1.945274 13.31227,5.22477 22.78142,18.208376 22.78142,33.335819 0,15.076186 -9.40499,28.025465 -22.64678,33.284615 -0.86727,-1.28633 -2.33724,-2.13529 -3.99948,-2.13529 -2.65532,0 -4.82087,2.16556 -4.82087,4.82088 z"
     inkscape:connector-curvature="0" />
</svg>
